{"title":"Clash Of The Titans.2010.DvdRip.Xvid {1337x}-Noir","uid":5682073,"size":735953057,"categoryP":"video","categoryS":"movies","magnet":"?xt=urn:btih:b031fb48751add8a09944c58988607f317e7f554&amp;dn=Clash+Of+The+Titans.2010.DvdRip.Xvid+%7B1337x%7D-Noir&amp;tr=udp%3A%2F%2Ftracker.openbittorrent.com%3A80&amp;tr=udp%3A%2F%2Fopen.demonii.com%3A1337&amp;tr=udp%3A%2F%2Ftracker.coppersurfer.tk%3A6969&amp;tr=udp%3A%2F%2Fexodus.desync.com%3A6969","seeders":0,"leechers":1,"uploader":"CODYBOSS1969","files":4,"time":1278857484,"description":"General\nComplete name : Clash Of The Titans.2010.DvdRip.Xvid {1337x}-Noir.avi\nFormat : AVI\nFormat/Info : Audio Video Interleave\nFile size : 702 MiB\nDuration : 1h 44mn\nOverall bit rate : 939 Kbps\nWriting application : Noir's Hyper HD Xvid\nWriting library : VirtualDub build 32817/release\nCopyright : By Noir\nEncoded_Original : Noir's Shit\n\nVideo\nFormat : MPEG-4 Visual\nFormat profile : Streaming Video@L1\nFormat settings, BVOP : Yes\nFormat settings, QPel : No\nFormat settings, GMC : No warppoints\nFormat settings, Matrix : Default\nMuxing mode : Packet Bitstream\nCodec ID : XVID\nCodec ID/Hint : XviD\nDuration : 1h 44mn\nBit rate : 812 Kbps\nWidth : 672 pixels\nHeight : 288 pixels\nDisplay aspect ratio : 2.35\nFrame rate : 23.976 fps\nResolution : 24 bits\nColorimetry : 4:2:0\nScan type : Progressive\nBits/(Pixel*Frame) : 0.175\nStream size : 607 MiB (86%)\nWriting library : XviD 55\n\nAudio\nFormat : MPEG Audio\nFormat version : Version 1\nFormat profile : Layer 3\nCodec ID : 55\nCodec ID/Hint : MP3\nDuration : 1h 44mn\nBit rate mode : Variable\nBit rate : 114 Kbps\nChannel(s) : 2 channels\nSampling rate : 44.1 KHz\nResolution : 16 bits\nStream size : 85.5 MiB (12%)\nAlignment : Aligned on interleaves\nInterleave, duration : 26 ms (0.63 video frame)\nInterleave, preload duration : 513 ms\nWriting library : LAME3.98.4\n\nSubtitles included: Romanian\n\nIMDB link: http://www.imdb.com/title/tt0800320/","torrent":{"xt":"urn:btih:b031fb48751add8a09944c58988607f317e7f554","amp;dn":"Clash+Of+The+Titans.2010.DvdRip.Xvid+%7B1337x%7D-Noir","amp;tr":["udp%3A%2F%2Ftracker.openbittorrent.com%3A80","udp%3A%2F%2Fopen.demonii.com%3A1337","udp%3A%2F%2Ftracker.coppersurfer.tk%3A6969","udp%3A%2F%2Fexodus.desync.com%3A6969"],"infoHash":"b031fb48751add8a09944c58988607f317e7f554","infoHashBuffer":{"type":"Buffer","data":[176,49,251,72,117,26,221,138,9,148,76,88,152,134,7,243,23,231,245,84]},"announce":[],"urlList":[]}}